<?xml version="1.0" encoding="utf-8"?>
<!-- Generator: Adobe Illustrator 20.0.0, SVG Export Plug-In . SVG Version: 6.00 Build 0)  -->
<svg version="1.1" id="图层_1" xmlns="http://www.w3.org/2000/svg" xmlns:xlink="http://www.w3.org/1999/xlink" x="0px" y="0px"
	 viewBox="0 0 244.1 93.9" style="enable-background:new 0 0 244.1 93.9;" xml:space="preserve">
<style type="text/css">
	.st0{fill:#333;}
</style>
<g>
	<g>
		<path class="st0" d="M76.4,15.7L54.1,2.8c-6.6-3.8-14.7-3.8-21.2,0L10.6,15.7C4.1,19.5,0,26.5,0,34.1v25.7
			c0,7.6,4.1,14.6,10.6,18.4l22.3,12.9c6.6,3.8,14.7,3.8,21.2,0l22.3-12.9C83,74.4,87,67.4,87,59.8V34.1C87,26.5,83,19.5,76.4,15.7z
			 M17.3,20.7c2.3-2.3,6.1-2.3,8.4,0l0.8,0.8c-3.1,2.6-5.7,5.8-7.4,9.5l-1.9-1.9C15,26.8,15,23,17.3,20.7z M60.6,68.1h-16v-2.7
			l5.8-2.3c1.6-0.6,2.7-2.2,2.7-3.9c0-3-3-5-5.8-3.9l-3.8,1.5l-3.8-1.5c-2.8-1.1-5.8,1-5.8,3.9c0,1.7,1.1,3.3,2.7,3.9l5.8,2.3v2.7
			h-16c-5.8,0-10.6-4.7-10.6-10.6c0-5.3,4-9.8,9.1-10.4v-5.4c0-10.2,8.3-18.5,18.5-18.5h0c10.2,0,18.5,8.3,18.5,18.5v5.4
			c5.2,0.7,9.1,5.1,9.1,10.4C71.1,63.4,66.4,68.1,60.6,68.1z M69.8,29.1L67.9,31c-1.7-3.7-4.2-6.9-7.4-9.5l0.8-0.8
			c2.3-2.3,6.1-2.3,8.4,0C72.1,23,72.1,26.8,69.8,29.1z"/>
		<circle class="st0" cx="36.8" cy="43" r="2.4"/>
		<circle class="st0" cx="50.2" cy="43" r="2.4"/>
	</g>
	<g>
		<path class="st0" d="M184.6,56.8c1.6,0,2.9-1.3,2.9-2.9c0-1.6-1.3-2.9-2.9-2.9h-11.1c-1.6,0-2.9,1.3-2.9,2.9
			c0,1.6,1.3,2.9,2.9,2.9H184.6z"/>
		<path class="st0" d="M242,37.3h1.9V23.4h-19.6v-1.5h-13.9v2.4l-6.7-5.9l-9.2,10.5l5.1,4.4l-2.4,2.1h-3.3V29h-7v-6.1h-13.6l-2-1.4
			l-5.6,7.8l-9.3-8.2l-5.5,6.3v-5.5h-13.9v11.5l-16.7-14.7l-19.3,17l3.2,3.6v18.9c0,5,2.4,9.9,6.4,12.9c2.8,2.2,6.2,3.3,9.8,3.3
			c4,0,7.8-1.4,10.7-4.1l1.8-1.6l9.2,6.6l2.9-4.1c0.6-0.9,1.2-1.7,1.7-2.6l0.6-1l0.3,0.2l1.5-4.4c0.5-1.3,0.8-2.7,1.1-4l0.1-0.3
			c0.4-2,0.6-4.1,0.6-6V38.5l2.1-1.9l2.9,2.5v10.1c0,3-0.6,6.1-1.8,9.2c0,0,0,0.1-0.1,0.1l-0.1,0.1l0,0c-0.1,0.4-0.4,1-0.8,1.8l0,0
			l-0.3,0.6c0,0.1-0.1,0.1-0.1,0.2c-0.3,0.5-0.5,1-0.8,1.4c-0.3,0.5-0.7,1.1-1,1.6l-2.9,4.1l0.1,0l11.2,8l2.9-4.1
			c0.1-0.2,0.3-0.4,0.4-0.6l0.7-1.1l0.8,0.4c3,1.4,6.1,2.1,9.2,2.1h23.8v-5.4l11,7.9l2.4-3.4l4.8,3.4l2.2-3.1h26.5V44.9
			c0-2.1-0.5-4.2-1.4-6.1L242,37.3z M124.3,44.9h-11.4v13.4c0,2.3,1.1,4.5,2.9,5.9c2.8,2.1,6.7,2,9.3-0.3l2.7-2.3l2.5,2.8l-2.7,2.3
			c-2.1,1.9-4.7,2.8-7.4,2.8c-2.4,0-4.7-0.7-6.7-2.3c-2.8-2.1-4.4-5.4-4.4-8.9V41.1h15.1c3.7,0,6.7,3,6.7,6.7s-3,6.7-6.7,6.7h-7.4
			v-3.8h7.4c1.6,0,2.9-1.3,2.9-2.9C127.2,46.2,125.9,44.9,124.3,44.9z M129.8,39l-9.7-8.5l-9.7,8.5l-2.5-2.8l12.2-10.7l12.2,10.7
			L129.8,39z M136.7,54.7c0,0.5-0.1,0.8-0.2,1.1c-0.2,1.5-0.6,3-1.2,4.4l-0.6,1.4l-3.7-4.2l0.8-0.7c1.2-1,2.2-2.2,2.9-3.7l0.7-1.3
			c0,0,1.5-3,1.5-4.5C136.9,47.4,137,51.7,136.7,54.7z M145.7,53.2c0,5.5-1.7,10.7-4.9,15.2l-3.1-2.2c2.7-3.8,4.2-8.3,4.2-13V39.8
			l-5.8,5.4l-2.6-2.8l8.4-7.7v-7.7h3.8V53.2z M192.1,67.9h-18.7c-4.5,0-8.7-1.8-11.8-4.8c-1,2.2-2.1,4.3-3.5,6.2l-3.1-2.2
			c3.8-5.3,5.8-11.5,5.8-17.9V36.8l-6.6-5.8l2.5-2.8l7.9,6.9v14.1c0,3.4-0.5,6.7-1.5,9.9c2.5,3.1,6.3,5,10.3,5h18.7V67.9z
			 M166.8,53.9c0-3.7,3-6.7,6.7-6.7h11.1c3.7,0,6.7,3,6.7,6.7c0,3.7-3,6.7-6.7,6.7h-11.1C169.9,60.6,166.8,57.6,166.8,53.9z
			 M192.1,44.2H166v-3.8h11.8v-2.6h-12.2l6.7-9.3l3.1,2.2l-2.4,3.3h4.9v-6.1h3.8v6.1h7v3.8h-7v2.6h10.5V44.2z M205.8,32.1l-4.3-3.7
			l2.5-2.8l4.3,3.7c1.2,1,1.8,2.5,1.8,4c0,1.5-0.7,3-1.8,4L204,41l-2.5-2.8l4.3-3.7c0.5-0.4,0.5-0.9,0.5-1.2S206.3,32.5,205.8,32.1z
			 M197.2,40.9l4.3,4.9l-4.3,3.8V40.9z M201.3,60.8c-0.4,0.8-0.9,1.6-1.4,2.4l-2.6,3.7v-7.8h-2l0.5-1.4c0.2-0.4,0.3-0.8,0.4-1.3
			l0.4-1.9l2.2,2.5l0.4,0.5l2.4,2.7L201.3,60.8z M207,68.4l-3.1-2.2c2.7-3.8,4.2-8.3,4.2-13v-1.4c-1.9,1.7-4.1,3.6-4.1,3.6l-2.5-2.8
			c8.1-7.1,8.1-7.1,9.3-6.6l1.1,0.5v6.8C211.9,58.7,210.2,63.9,207,68.4z M219.1,53.2c0,5.5-1.7,10.7-4.9,15.2l-3.1-2.2
			c2.7-3.8,4.2-8.3,4.2-13V39.6l-2.3,2l-2.5-2.8l4.8-4.2v-7.7h3.8V53.2z M239.1,67.3h-3.8V44.9c0-2.2-1.3-4-3.2-4.8v27.1h-3.8V40.1
			c-1.9,0.8-3.2,2.6-3.2,4.8v22.4h-3.8V44.9c0-4.3,3-7.8,7-8.7v-3.9H221v-3.8h17.7v3.8H232v3.9c4,0.9,7,4.4,7,8.7V67.3z"/>
	</g>
</g>
</svg>
