<?xml version="1.0"?>
<svg width="1792" height="1792" xmlns="http://www.w3.org/2000/svg" xmlns:svg="http://www.w3.org/2000/svg">
 <g>
  <path fill="#777" id="svg_1" d="m1343.999999,1472.000003q0,-26 -19,-45t-45,-19t-45,19t-19,45t19,45t45,19t45,-19t19,-45zm256,0q0,-26 -19,-45t-45,-19t-45,19t-19,45t19,45t45,19t45,-19t19,-45zm128,-224l0,320q0,40 -28,68t-68,28l-1472,0q-40,0 -68,-28t-28,-68l0,-320q0,-40 28,-68t68,-28l465,0l135,136q58,56 136,56t136,-56l136,-136l464,0q40,0 68,28t28,68zm-325,-569q17,41 -14,70l-448,448q-18,19 -45,19t-45,-19l-448,-448q-31,-29 -14,-70q17,-39 59,-39l256,0l0,-448q0,-26 19,-45t45,-19l256,0q26,0 45,19t19,45l0,448l256,0q42,0 59,39z"/>
 </g>
</svg>